<?xml version="1.0" encoding="UTF-8"?> <svg xmlns="http://www.w3.org/2000/svg" width="512" height="512" viewBox="0 0 512 512" fill="none"> <path d="M491.243 145.297C489.408 145.297 487.648 144.568 486.351 143.271C485.053 141.973 484.324 140.213 484.324 138.378V27.6757H373.622C371.787 27.6757 370.027 26.9468 368.729 25.6492C367.432 24.3517 366.703 22.5918 366.703 20.7568C366.703 18.9218 367.432 17.1619 368.729 15.8644C370.027 14.5668 371.787 13.8379 373.622 13.8379H491.243C493.078 13.8379 494.838 14.5668 496.136 15.8644C497.433 17.1619 498.162 18.9218 498.162 20.7568V138.378C498.162 140.213 497.433 141.973 496.136 143.271C494.838 144.568 493.078 145.297 491.243 145.297Z" fill="#0DB795"></path> <path d="M138.378 498.162H20.7567C18.9217 498.162 17.1619 497.433 15.8643 496.136C14.5668 494.838 13.8378 493.078 13.8378 491.243V373.622C13.8378 371.787 14.5668 370.027 15.8643 368.729C17.1619 367.432 18.9217 366.703 20.7567 366.703C22.5918 366.703 24.3516 367.432 25.6492 368.729C26.9467 370.027 27.6757 371.787 27.6757 373.622V484.324H138.378C140.213 484.324 141.973 485.053 143.271 486.351C144.568 487.648 145.297 489.408 145.297 491.243C145.297 493.078 144.568 494.838 143.271 496.136C141.973 497.433 140.213 498.162 138.378 498.162Z" fill="#0DB795"></path> <path d="M20.7567 145.297C18.9217 145.297 17.1619 144.568 15.8643 143.271C14.5668 141.973 13.8378 140.213 13.8378 138.378V20.7568C13.8378 18.9218 14.5668 17.1619 15.8643 15.8644C17.1619 14.5668 18.9217 13.8379 20.7567 13.8379H138.378C140.213 13.8379 141.973 14.5668 143.271 15.8644C144.568 17.1619 145.297 18.9218 145.297 20.7568C145.297 22.5918 144.568 24.3517 143.271 25.6492C141.973 26.9468 140.213 27.6757 138.378 27.6757H27.6757V138.378C27.6757 140.213 26.9467 141.973 25.6492 143.271C24.3516 144.568 22.5918 145.297 20.7567 145.297Z" fill="#0DB795"></path> <path d="M491.243 498.162H373.622C371.787 498.162 370.027 497.433 368.729 496.136C367.432 494.838 366.703 493.078 366.703 491.243C366.703 489.408 367.432 487.648 368.729 486.351C370.027 485.053 371.787 484.324 373.622 484.324H484.324V373.622C484.324 371.787 485.053 370.027 486.351 368.729C487.648 367.432 489.408 366.703 491.243 366.703C493.078 366.703 494.838 367.432 496.136 368.729C497.433 370.027 498.162 371.787 498.162 373.622V491.243C498.162 493.078 497.433 494.838 496.136 496.136C494.838 497.433 493.078 498.162 491.243 498.162Z" fill="#0DB795"></path> <path d="M256 408.216C223.727 408.218 192.288 397.962 166.224 378.93C140.16 359.897 120.82 333.073 110.997 302.331C101.174 271.589 101.376 238.52 111.574 207.9C121.772 177.281 141.439 150.695 167.733 131.982C194.028 113.27 225.589 103.399 257.86 103.795C290.131 104.192 321.441 114.835 347.268 134.188C373.095 153.541 392.102 180.601 401.545 211.462C410.988 242.323 410.378 275.387 399.803 305.878C399.548 306.789 399.109 307.638 398.514 308.373C397.918 309.107 397.178 309.712 396.34 310.149C395.501 310.587 394.582 310.848 393.638 310.916C392.695 310.984 391.748 310.858 390.855 310.546C389.962 310.234 389.143 309.742 388.448 309.1C387.753 308.459 387.197 307.682 386.814 306.817C386.43 305.953 386.229 305.019 386.221 304.073C386.213 303.127 386.399 302.19 386.768 301.319C397.181 271.312 396.957 238.636 386.136 208.774C375.314 178.912 354.552 153.679 327.332 137.31C300.113 120.94 268.092 114.429 236.641 118.869C205.191 123.309 176.223 138.43 154.599 161.695C132.975 184.96 120.009 214.953 117.877 246.644C115.744 278.335 124.575 309.795 142.888 335.747C161.201 361.699 187.881 380.564 218.454 389.177C249.026 397.79 281.631 395.628 310.798 383.052C312.481 382.318 314.386 382.283 316.095 382.953C317.804 383.624 319.176 384.946 319.91 386.629C320.644 388.312 320.68 390.217 320.009 391.926C319.338 393.635 318.016 395.007 316.333 395.741C297.3 404.023 276.757 408.27 256 408.216Z" fill="#0DB795"></path> <path d="M355.01 369.263C353.62 369.262 352.263 368.844 351.115 368.061C349.967 367.279 349.081 366.169 348.573 364.876C348.064 363.583 347.957 362.166 348.265 360.812C348.572 359.457 349.281 358.226 350.298 357.279C354.999 352.909 359.391 348.218 363.444 343.241C364.017 342.536 364.724 341.95 365.523 341.518C366.323 341.086 367.2 340.816 368.104 340.723C369.008 340.63 369.921 340.716 370.792 340.975C371.663 341.235 372.474 341.664 373.179 342.238C373.884 342.811 374.469 343.517 374.901 344.317C375.333 345.116 375.603 345.993 375.697 346.897C375.79 347.801 375.704 348.715 375.444 349.585C375.184 350.456 374.755 351.267 374.182 351.972C369.723 357.44 364.891 362.593 359.722 367.395C358.444 368.591 356.76 369.259 355.01 369.263Z" fill="#0DB795"></path> <path d="M256 159.135C254.165 159.135 252.405 158.406 251.108 157.109C249.81 155.811 249.081 154.051 249.081 152.216V69.1894C249.081 67.3544 249.81 65.5946 251.108 64.297C252.405 62.9995 254.165 62.2705 256 62.2705C257.835 62.2705 259.595 62.9995 260.892 64.297C262.19 65.5946 262.919 67.3544 262.919 69.1894V152.216C262.919 154.051 262.19 155.811 260.892 157.109C259.595 158.406 257.835 159.135 256 159.135Z" fill="#0DB795"></path> <path d="M256 449.73C254.165 449.73 252.405 449.001 251.108 447.703C249.81 446.406 249.081 444.646 249.081 442.811V359.784C249.081 357.949 249.81 356.189 251.108 354.891C252.405 353.594 254.165 352.865 256 352.865C257.835 352.865 259.595 353.594 260.892 354.891C262.19 356.189 262.919 357.949 262.919 359.784V442.811C262.919 444.646 262.19 446.406 260.892 447.703C259.595 449.001 257.835 449.73 256 449.73Z" fill="#0DB795"></path> <path d="M442.811 262.919H359.784C357.949 262.919 356.189 262.19 354.891 260.892C353.594 259.595 352.865 257.835 352.865 256C352.865 254.165 353.594 252.405 354.891 251.108C356.189 249.81 357.949 249.081 359.784 249.081H442.811C444.646 249.081 446.406 249.81 447.703 251.108C449.001 252.405 449.73 254.165 449.73 256C449.73 257.835 449.001 259.595 447.703 260.892C446.406 262.19 444.646 262.919 442.811 262.919Z" fill="#0DB795"></path> <path d="M152.216 262.919H69.1892C67.3542 262.919 65.5943 262.19 64.2968 260.892C62.9992 259.595 62.2703 257.835 62.2703 256C62.2703 254.165 62.9992 252.405 64.2968 251.108C65.5943 249.81 67.3542 249.081 69.1892 249.081H152.216C154.051 249.081 155.811 249.81 157.109 251.108C158.406 252.405 159.135 254.165 159.135 256C159.135 257.835 158.406 259.595 157.109 260.892C155.811 262.19 154.051 262.919 152.216 262.919Z" fill="#0DB795"></path> </svg> 