<?xml version="1.0" encoding="UTF-8"?> <svg xmlns="http://www.w3.org/2000/svg" width="512" height="512" viewBox="0 0 512 512" fill="none"> <path d="M291.909 498.162H271.36C269.525 498.162 267.765 497.433 266.468 496.136C265.17 494.838 264.441 493.078 264.441 491.243C264.441 489.408 265.17 487.648 266.468 486.351C267.765 485.053 269.525 484.324 271.36 484.324H291.909C293.744 484.324 295.504 485.053 296.802 486.351C298.099 487.648 298.828 489.408 298.828 491.243C298.828 493.078 298.099 494.838 296.802 496.136C295.504 497.433 293.744 498.162 291.909 498.162Z" fill="#0DB795"></path> <path d="M477.405 498.162H340.342C338.507 498.162 336.747 497.433 335.449 496.136C334.152 494.838 333.423 493.078 333.423 491.243C333.423 489.408 334.152 487.648 335.449 486.351C336.747 485.053 338.507 484.324 340.342 484.324H477.405C479.24 484.324 481 483.595 482.298 482.298C483.595 481 484.324 479.24 484.324 477.405V34.5946C484.324 32.7596 483.595 30.9998 482.298 29.7022C481 28.4047 479.24 27.6757 477.405 27.6757H34.5946C32.7596 27.6757 30.9997 28.4047 29.7022 29.7022C28.4046 30.9998 27.6757 32.7596 27.6757 34.5946V477.405C27.6757 479.24 28.4046 481 29.7022 482.298C30.9997 483.595 32.7596 484.324 34.5946 484.324H154.43C156.265 484.324 158.025 485.053 159.323 486.351C160.62 487.648 161.349 489.408 161.349 491.243C161.349 493.078 160.62 494.838 159.323 496.136C158.025 497.433 156.265 498.162 154.43 498.162H34.5946C29.0896 498.162 23.81 495.975 19.9173 492.083C16.0247 488.19 13.8378 482.91 13.8378 477.405V34.5946C13.8378 29.0896 16.0247 23.8101 19.9173 19.9174C23.81 16.0248 29.0896 13.8379 34.5946 13.8379H477.405C482.91 13.8379 488.19 16.0248 492.083 19.9174C495.975 23.8101 498.162 29.0896 498.162 34.5946V477.405C498.162 482.91 495.975 488.19 492.083 492.083C488.19 495.975 482.91 498.162 477.405 498.162Z" fill="#0DB795"></path> <path d="M222.928 498.162H202.863C201.028 498.162 199.268 497.433 197.97 496.136C196.673 494.838 195.944 493.078 195.944 491.243C195.944 489.408 196.673 487.648 197.97 486.351C199.268 485.053 201.028 484.324 202.863 484.324H222.928C224.763 484.324 226.522 485.053 227.82 486.351C229.118 487.648 229.847 489.408 229.847 491.243C229.847 493.078 229.118 494.838 227.82 496.136C226.522 497.433 224.763 498.162 222.928 498.162Z" fill="#0DB795"></path> <path d="M491.243 131.459H20.7567C18.9217 131.459 17.1619 130.73 15.8643 129.433C14.5668 128.135 13.8378 126.376 13.8378 124.541C13.8378 122.705 14.5668 120.946 15.8643 119.648C17.1619 118.351 18.9217 117.622 20.7567 117.622H491.243C493.078 117.622 494.838 118.351 496.136 119.648C497.433 120.946 498.162 122.705 498.162 124.541C498.162 126.376 497.433 128.135 496.136 129.433C494.838 130.73 493.078 131.459 491.243 131.459Z" fill="#0DB795"></path> <path d="M84.2101 98.7675C79.1576 98.7689 74.2181 97.2719 70.0164 94.4658C65.8147 91.6598 62.5395 87.6707 60.605 83.0032C58.6706 78.3356 58.1637 73.1992 59.1486 68.2436C60.1334 63.288 62.5658 58.7357 66.138 55.1625C69.7102 51.5894 74.2618 49.1558 79.2172 48.1696C84.1725 47.1834 89.3091 47.6888 93.9771 49.622C98.6452 51.5553 102.635 54.8294 105.442 59.0303C108.25 63.2313 109.748 68.1703 109.748 73.2229C109.733 79.9921 107.038 86.4799 102.252 91.2671C97.4664 96.0543 90.9793 98.7511 84.2101 98.7675ZM84.2101 61.523C81.8942 61.5216 79.6298 62.2072 77.7036 63.4931C75.7774 64.7789 74.2758 66.6072 73.3889 68.7466C72.502 70.886 72.2695 73.2404 72.721 75.512C73.1725 77.7835 74.2876 79.8701 75.9253 81.5078C77.5629 83.1454 79.6495 84.2605 81.921 84.712C84.1926 85.1635 86.547 84.9311 88.6864 84.0442C90.8259 83.1572 92.6541 81.6557 93.94 79.7294C95.2258 77.8032 95.9114 75.5389 95.91 73.2229C95.9046 70.1216 94.6701 67.1488 92.4772 64.9559C90.2842 62.7629 87.3115 61.5285 84.2101 61.523Z" fill="#0DB795"></path> <path d="M149.047 98.7675C143.995 98.7689 139.055 97.2719 134.854 94.4658C130.652 91.6598 127.377 87.6707 125.442 83.0032C123.508 78.3356 123.001 73.1992 123.986 68.2436C124.971 63.288 127.403 58.7357 130.975 55.1625C134.547 51.5894 139.099 49.1558 144.054 48.1696C149.01 47.1834 154.146 47.6888 158.814 49.622C163.482 51.5553 167.472 54.8294 170.28 59.0303C173.087 63.2313 174.585 68.1703 174.585 73.2229C174.57 79.9921 171.875 86.4799 167.09 91.2671C162.304 96.0543 155.817 98.7511 149.047 98.7675ZM149.047 61.523C146.731 61.5216 144.467 62.2072 142.541 63.4931C140.615 64.7789 139.113 66.6072 138.226 68.7466C137.339 70.886 137.107 73.2404 137.558 75.512C138.01 77.7835 139.125 79.8701 140.762 81.5078C142.4 83.1454 144.487 84.2605 146.758 84.712C149.03 85.1635 151.384 84.9311 153.524 84.0442C155.663 83.1572 157.491 81.6557 158.777 79.7294C160.063 77.8032 160.749 75.5389 160.747 73.2229C160.744 70.121 159.51 67.1472 157.316 64.9539C155.123 62.7605 152.149 61.5267 149.047 61.523Z" fill="#0DB795"></path> <path d="M213.885 98.7675C208.831 98.7743 203.889 97.282 199.683 94.4793C195.478 91.6766 192.198 87.6894 190.26 83.0224C188.321 78.3553 187.81 73.218 188.792 68.2606C189.774 63.3031 192.204 58.7483 195.775 55.1723C199.346 51.5964 203.898 49.1601 208.854 48.1716C213.81 47.1832 218.948 47.687 223.617 49.6194C228.287 51.5518 232.279 54.8259 235.087 59.0274C237.896 63.229 239.395 68.1691 239.395 73.2229C239.38 79.9873 236.689 86.4709 231.909 91.2573C227.129 96.0437 220.649 98.7438 213.885 98.7675ZM213.885 61.523C211.567 61.5161 209.3 62.1971 207.37 63.4796C205.441 64.7621 203.935 66.5884 203.044 68.7274C202.152 70.8663 201.916 73.2216 202.364 75.4949C202.813 77.7683 203.926 79.8575 205.562 81.4979C207.199 83.1383 209.285 84.2562 211.558 84.7099C213.83 85.1636 216.186 84.9328 218.327 84.0467C220.468 83.1607 222.298 81.6591 223.585 79.7323C224.872 77.8055 225.558 75.54 225.557 73.2229C225.553 70.1258 224.323 67.1561 222.136 64.9636C219.948 62.771 216.982 61.5339 213.885 61.523Z" fill="#0DB795"></path> <path d="M446.416 80.1418H265.949C264.114 80.1418 262.355 79.4128 261.057 78.1153C259.759 76.8177 259.03 75.0579 259.03 73.2229C259.03 71.3879 259.759 69.628 261.057 68.3305C262.355 67.0329 264.114 66.304 265.949 66.304H446.416C448.251 66.304 450.01 67.0329 451.308 68.3305C452.606 69.628 453.335 71.3879 453.335 73.2229C453.335 75.0579 452.606 76.8177 451.308 78.1153C450.01 79.4128 448.251 80.1418 446.416 80.1418Z" fill="#0DB795"></path> <path d="M272.605 443.032H239.395C236.839 443.04 234.365 442.134 232.42 440.477C230.474 438.819 229.186 436.521 228.788 433.996L226.228 418.173C216.288 415.539 206.747 411.583 197.86 406.41L184.853 415.827C182.788 417.332 180.253 418.046 177.707 417.842C175.16 417.638 172.772 416.528 170.973 414.713L147.449 391.189C145.64 389.388 144.533 387 144.328 384.456C144.122 381.912 144.832 379.377 146.328 377.309L155.724 364.295C150.549 355.41 146.593 345.868 143.962 335.927L128.125 333.367C125.608 332.962 123.32 331.671 121.671 329.728C120.021 327.785 119.121 325.316 119.13 322.768V289.557C119.121 287.008 120.021 284.54 121.671 282.597C123.32 280.653 125.608 279.363 128.125 278.957L143.948 276.39C146.578 266.449 150.534 256.908 155.71 248.023L146.321 235.008C144.823 232.943 144.112 230.411 144.315 227.868C144.518 225.324 145.622 222.937 147.428 221.136L170.953 197.611C172.753 195.799 175.143 194.69 177.69 194.486C180.236 194.282 182.772 194.995 184.839 196.497L197.846 205.879C206.733 200.707 216.274 196.75 226.214 194.117L228.774 178.28C229.181 175.763 230.473 173.474 232.418 171.825C234.362 170.176 236.831 169.276 239.381 169.285H272.592C275.147 169.277 277.621 170.184 279.567 171.841C281.512 173.498 282.8 175.797 283.198 178.321L285.758 194.145C295.698 196.778 305.239 200.734 314.126 205.907L327.154 196.497C329.219 194.994 331.754 194.28 334.3 194.485C336.846 194.689 339.235 195.798 341.034 197.611L364.558 221.136C366.37 222.939 367.477 225.33 367.679 227.879C367.881 230.427 367.164 232.963 365.658 235.029L356.283 248.029C361.454 256.917 365.41 266.458 368.045 276.397L383.882 278.964C386.399 279.369 388.687 280.66 390.336 282.603C391.985 284.547 392.886 287.015 392.877 289.564V322.775C392.886 325.323 391.985 327.792 390.336 329.735C388.687 331.678 386.399 332.969 383.882 333.374L368.052 335.934C365.418 345.874 361.462 355.415 356.29 364.302L365.679 377.316C367.178 379.381 367.89 381.913 367.687 384.457C367.484 387.001 366.379 389.388 364.572 391.189L341.047 414.713C339.249 416.529 336.859 417.641 334.311 417.845C331.763 418.049 329.226 417.333 327.161 415.827L314.119 406.424C305.232 411.597 295.691 415.553 285.751 418.186L283.191 434.024C282.788 436.54 281.5 438.829 279.56 440.48C277.619 442.132 275.153 443.036 272.605 443.032ZM242.003 429.208H269.969L272.737 412.084C272.839 410.598 273.418 409.184 274.388 408.054C275.358 406.923 276.667 406.136 278.12 405.808C289.731 403.244 300.8 398.653 310.819 392.247C312.16 391.39 313.757 391.021 315.339 391.204C316.921 391.387 318.391 392.11 319.502 393.251L333.098 403.055L352.865 383.308L342.881 369.401C341.829 368.29 341.179 366.86 341.032 365.337C340.885 363.814 341.251 362.286 342.071 360.995C348.479 350.98 353.07 339.913 355.632 328.303C355.962 326.808 356.778 325.465 357.952 324.483C359.126 323.502 360.593 322.937 362.122 322.878L379.032 320.145V292.179L361.915 289.412C360.427 289.31 359.011 288.731 357.879 287.76C356.747 286.788 355.959 285.477 355.632 284.022C353.07 272.412 348.479 261.345 342.071 251.33C341.214 249.988 340.845 248.392 341.028 246.81C341.211 245.228 341.934 243.757 343.075 242.647L352.865 229.016L333.098 209.249L319.239 219.288C318.129 220.339 316.699 220.989 315.177 221.135C313.655 221.28 312.129 220.913 310.839 220.091C300.821 213.685 289.752 209.094 278.141 206.53C276.644 206.198 275.3 205.379 274.319 204.2C273.339 203.022 272.777 201.551 272.723 200.019L269.955 183.13H242.017L239.249 200.254C239.147 201.74 238.568 203.154 237.598 204.285C236.628 205.415 235.32 206.203 233.866 206.53C222.255 209.094 211.186 213.685 201.168 220.091C199.826 220.948 198.229 221.317 196.647 221.134C195.066 220.951 193.595 220.229 192.484 219.088L178.889 209.284L159.135 229.016L169.14 242.889C170.191 244 170.842 245.43 170.989 246.953C171.135 248.476 170.77 250.004 169.949 251.295C163.528 261.318 158.93 272.397 156.368 284.022C156.037 285.52 155.218 286.865 154.04 287.847C152.861 288.829 151.39 289.392 149.857 289.446L132.968 292.179V320.145L150.106 322.913C151.584 323.026 152.988 323.61 154.109 324.58C155.23 325.551 156.01 326.856 156.333 328.303C158.893 339.914 163.484 350.981 169.894 360.995C170.751 362.337 171.118 363.934 170.934 365.516C170.75 367.098 170.026 368.568 168.884 369.678L159.135 383.308L178.902 403.076L192.782 393.071C193.892 392.02 195.322 391.37 196.844 391.224C198.365 391.079 199.892 391.446 201.181 392.268C211.196 398.66 222.257 403.239 233.859 405.795C235.356 406.126 236.7 406.946 237.681 408.124C238.661 409.303 239.223 410.773 239.277 412.305L242.003 429.208Z" fill="#0DB795"></path> <path d="M256 386.076C240.198 386.074 224.752 381.388 211.613 372.608C198.475 363.828 188.235 351.35 182.189 336.751C176.142 322.152 174.56 306.087 177.642 290.589C180.725 275.091 188.334 260.855 199.507 249.681C210.68 238.507 224.915 230.897 240.413 227.813C255.911 224.729 271.976 226.31 286.575 232.355C301.175 238.401 313.654 248.639 322.435 261.777C331.216 274.914 335.904 290.36 335.907 306.162C335.886 327.349 327.462 347.663 312.481 362.645C297.5 377.627 277.187 386.054 256 386.076ZM256 240.087C242.935 240.088 230.163 243.964 219.3 251.223C208.437 258.483 199.971 268.801 194.972 280.872C189.973 292.944 188.665 306.226 191.215 319.041C193.765 331.855 200.057 343.625 209.297 352.864C218.536 362.102 230.307 368.393 243.121 370.941C255.936 373.49 269.218 372.181 281.289 367.181C293.36 362.181 303.677 353.713 310.936 342.85C318.194 331.986 322.069 319.214 322.069 306.148C322.049 288.633 315.081 271.84 302.695 259.455C290.309 247.071 273.516 240.105 256 240.087Z" fill="#0DB795"></path> <path d="M244.778 343.317C242.427 343.311 240.109 342.764 238.004 341.719C235.462 340.468 233.323 338.529 231.83 336.121C230.338 333.713 229.552 330.935 229.563 328.102V284.222C229.577 281.401 230.375 278.64 231.868 276.246C233.36 273.852 235.489 271.92 238.016 270.666C240.542 269.412 243.368 268.884 246.177 269.142C248.986 269.4 251.669 270.434 253.924 272.128L282.797 294.061C284.661 295.481 286.172 297.313 287.213 299.413C288.253 301.513 288.794 303.825 288.794 306.169C288.794 308.513 288.253 310.825 287.213 312.925C286.172 315.025 284.661 316.857 282.797 318.277L253.924 340.203C251.297 342.211 248.084 343.304 244.778 343.317ZM244.778 282.845C244.56 282.849 244.347 282.903 244.155 283.005C243.921 283.108 243.725 283.28 243.59 283.497C243.456 283.714 243.39 283.967 243.401 284.222V328.102C243.41 328.35 243.485 328.592 243.62 328.801C243.754 329.01 243.942 329.179 244.165 329.29C244.387 329.401 244.635 329.45 244.883 329.432C245.131 329.414 245.369 329.33 245.573 329.188L274.446 307.248C274.61 307.119 274.743 306.954 274.834 306.766C274.925 306.578 274.972 306.371 274.972 306.162C274.972 305.953 274.925 305.747 274.834 305.559C274.743 305.37 274.61 305.205 274.446 305.076L245.573 283.143C245.348 282.958 245.068 282.853 244.778 282.845Z" fill="#0DB795"></path> </svg> 