<?xml version="1.0" encoding="UTF-8"?> <svg xmlns="http://www.w3.org/2000/svg" width="512" height="512" viewBox="0 0 512 512" fill="none"> <path d="M328.233 86.4865H307.684C305.849 86.4865 304.089 85.7576 302.792 84.46C301.494 83.1625 300.765 81.4026 300.765 79.5676C300.765 77.7326 301.494 75.9727 302.792 74.6752C304.089 73.3776 305.849 72.6487 307.684 72.6487H328.233C330.069 72.6487 331.828 73.3776 333.126 74.6752C334.423 75.9727 335.152 77.7326 335.152 79.5676C335.152 81.4026 334.423 83.1625 333.126 84.46C331.828 85.7576 330.069 86.4865 328.233 86.4865Z" fill="#0DB795"></path> <path d="M463.568 439.351H48.4324C39.2607 439.34 30.4679 435.692 23.9825 429.207C17.4971 422.721 13.8488 413.928 13.8378 404.757V107.243C13.8488 98.0716 17.4971 89.2787 23.9825 82.7933C30.4679 76.308 39.2607 72.6597 48.4324 72.6487H190.685C192.52 72.6487 194.28 73.3776 195.578 74.6752C196.875 75.9727 197.604 77.7326 197.604 79.5676C197.604 81.4026 196.875 83.1625 195.578 84.46C194.28 85.7576 192.52 86.4865 190.685 86.4865H48.4324C42.9274 86.4865 37.6478 88.6734 33.7552 92.566C29.8625 96.4587 27.6757 101.738 27.6757 107.243V404.757C27.6757 410.262 29.8625 415.541 33.7552 419.434C37.6478 423.327 42.9274 425.514 48.4324 425.514H463.568C469.073 425.514 474.352 423.327 478.245 419.434C482.137 415.541 484.324 410.262 484.324 404.757V107.243C484.324 101.738 482.137 96.4587 478.245 92.566C474.352 88.6734 469.073 86.4865 463.568 86.4865H376.666C374.831 86.4865 373.071 85.7576 371.774 84.46C370.476 83.1625 369.747 81.4026 369.747 79.5676C369.747 77.7326 370.476 75.9727 371.774 74.6752C373.071 73.3776 374.831 72.6487 376.666 72.6487H463.568C472.739 72.6597 481.532 76.308 488.018 82.7933C494.503 89.2787 498.151 98.0716 498.162 107.243V404.757C498.151 413.928 494.503 422.721 488.018 429.207C481.532 435.692 472.739 439.34 463.568 439.351Z" fill="#0DB795"></path> <path d="M259.252 86.4865H239.118C237.283 86.4865 235.523 85.7576 234.225 84.46C232.928 83.1625 232.199 81.4026 232.199 79.5676C232.199 77.7326 232.928 75.9727 234.225 74.6752C235.523 73.3776 237.283 72.6487 239.118 72.6487H259.252C261.087 72.6487 262.847 73.3776 264.144 74.6752C265.442 75.9727 266.171 77.7326 266.171 79.5676C266.171 81.4026 265.442 83.1625 264.144 84.46C262.847 85.7576 261.087 86.4865 259.252 86.4865Z" fill="#0DB795"></path> <path d="M491.243 328.649H20.7567C18.9217 328.649 17.1619 327.92 15.8643 326.622C14.5668 325.325 13.8378 323.565 13.8378 321.73C13.8378 319.895 14.5668 318.135 15.8643 316.837C17.1619 315.54 18.9217 314.811 20.7567 314.811H491.243C493.078 314.811 494.838 315.54 496.136 316.837C497.433 318.135 498.162 319.895 498.162 321.73C498.162 323.565 497.433 325.325 496.136 326.622C494.838 327.92 493.078 328.649 491.243 328.649Z" fill="#0DB795"></path> <path d="M435.892 384H138.378C136.543 384 134.784 383.271 133.486 381.973C132.188 380.676 131.459 378.916 131.459 377.081C131.459 375.246 132.188 373.486 133.486 372.189C134.784 370.891 136.543 370.162 138.378 370.162H435.892C437.727 370.162 439.487 370.891 440.784 372.189C442.082 373.486 442.811 375.246 442.811 377.081C442.811 378.916 442.082 380.676 440.784 381.973C439.487 383.271 437.727 384 435.892 384Z" fill="#0DB795"></path> <path d="M111.118 384H76.1081C74.2731 384 72.5132 383.271 71.2157 381.973C69.9181 380.676 69.1892 378.916 69.1892 377.081C69.1892 375.246 69.9181 373.486 71.2157 372.189C72.5132 370.891 74.2731 370.162 76.1081 370.162H111.118C112.953 370.162 114.713 370.891 116.01 372.189C117.308 373.486 118.037 375.246 118.037 377.081C118.037 378.916 117.308 380.676 116.01 381.973C114.713 383.271 112.953 384 111.118 384Z" fill="#0DB795"></path> <path d="M124.755 411.89C119.309 411.883 114.088 409.716 110.238 405.865C106.387 402.015 104.22 396.794 104.213 391.348V362.814C104.213 357.366 106.377 352.141 110.229 348.289C114.082 344.436 119.307 342.272 124.755 342.272C130.203 342.272 135.428 344.436 139.281 348.289C143.133 352.141 145.297 357.366 145.297 362.814V391.348C145.292 396.794 143.126 402.016 139.275 405.867C135.423 409.719 130.202 411.885 124.755 411.89ZM124.755 356.11C122.977 356.112 121.273 356.819 120.016 358.075C118.759 359.332 118.052 361.037 118.051 362.814V391.348C118.051 393.126 118.757 394.831 120.014 396.089C121.272 397.346 122.977 398.052 124.755 398.052C126.533 398.052 128.238 397.346 129.496 396.089C130.753 394.831 131.459 393.126 131.459 391.348V362.814C131.458 361.037 130.751 359.332 129.494 358.075C128.237 356.819 126.533 356.112 124.755 356.11Z" fill="#0DB795"></path> <path d="M231.832 258.214C226.317 258.205 221.031 256.01 217.131 252.11C213.231 248.211 211.036 242.924 211.027 237.409V163.888C211.028 160.017 212.109 156.223 214.149 152.933C216.19 149.643 219.108 146.988 222.576 145.267C226.044 143.546 229.923 142.828 233.777 143.193C237.631 143.557 241.307 144.991 244.39 147.331L292.774 184.099C295.325 186.038 297.393 188.541 298.816 191.412C300.24 194.283 300.981 197.444 300.981 200.649C300.981 203.853 300.24 207.014 298.816 209.885C297.393 212.756 295.325 215.259 292.774 217.199L244.397 253.966C240.786 256.718 236.372 258.21 231.832 258.214ZM231.832 156.914C230.748 156.919 229.68 157.175 228.712 157.661C227.544 158.226 226.56 159.111 225.877 160.214C225.193 161.317 224.837 162.591 224.851 163.888V237.409C224.838 238.709 225.192 239.987 225.872 241.095C226.552 242.204 227.53 243.098 228.695 243.676C229.86 244.254 231.165 244.492 232.459 244.362C233.753 244.233 234.984 243.741 236.011 242.944L284.368 206.184C285.221 205.535 285.912 204.698 286.388 203.738C286.865 202.778 287.112 201.72 287.112 200.649C287.112 199.577 286.865 198.52 286.388 197.56C285.912 196.599 285.221 195.762 284.368 195.114L235.984 158.353C234.796 157.434 233.341 156.928 231.839 156.914H231.832Z" fill="#0DB795"></path> </svg> 