<?xml version="1.0" encoding="UTF-8"?> <svg xmlns="http://www.w3.org/2000/svg" width="512" height="512" viewBox="0 0 512 512" fill="none"> <path d="M394.378 231.991C392.543 231.991 390.784 231.262 389.486 229.965C388.188 228.667 387.459 226.907 387.459 225.072V204.523C387.459 202.688 388.188 200.928 389.486 199.631C390.784 198.333 392.543 197.604 394.378 197.604C396.213 197.604 397.973 198.333 399.271 199.631C400.568 200.928 401.297 202.688 401.297 204.523V225.072C401.297 226.907 400.568 228.667 399.271 229.965C397.973 231.262 396.213 231.991 394.378 231.991Z" fill="#0DB795"></path> <path d="M373.622 498.162H138.378C131.038 498.162 123.999 495.246 118.809 490.056C113.619 484.866 110.703 477.827 110.703 470.487V41.5136C110.703 34.1735 113.619 27.1341 118.809 21.9439C123.999 16.7537 131.038 13.8379 138.378 13.8379H373.622C380.962 13.8379 388.001 16.7537 393.191 21.9439C398.381 27.1341 401.297 34.1735 401.297 41.5136V156.091C401.297 157.926 400.568 159.686 399.271 160.983C397.973 162.281 396.213 163.01 394.378 163.01C392.543 163.01 390.784 162.281 389.486 160.983C388.188 159.686 387.459 157.926 387.459 156.091V41.5136C387.459 37.8435 386.002 34.3238 383.406 31.7287C380.811 29.1336 377.292 27.6757 373.622 27.6757H138.378C134.708 27.6757 131.189 29.1336 128.594 31.7287C125.998 34.3238 124.541 37.8435 124.541 41.5136V470.487C124.541 474.157 125.998 477.676 128.594 480.271C131.189 482.866 134.708 484.324 138.378 484.324H373.622C377.292 484.324 380.811 482.866 383.406 480.271C386.002 477.676 387.459 474.157 387.459 470.487V342.071C387.459 340.236 388.188 338.477 389.486 337.179C390.784 335.881 392.543 335.152 394.378 335.152C396.213 335.152 397.973 335.881 399.271 337.179C400.568 338.477 401.297 340.236 401.297 342.071V470.487C401.297 477.827 398.381 484.866 393.191 490.056C388.001 495.246 380.962 498.162 373.622 498.162Z" fill="#0DB795"></path> <path d="M394.378 300.558C392.543 300.558 390.784 299.829 389.486 298.531C388.188 297.234 387.459 295.474 387.459 293.639V273.505C387.459 271.67 388.188 269.91 389.486 268.612C390.784 267.315 392.543 266.586 394.378 266.586C396.213 266.586 397.973 267.315 399.271 268.612C400.568 269.91 401.297 271.67 401.297 273.505V293.639C401.297 295.474 400.568 297.234 399.271 298.531C397.973 299.829 396.213 300.558 394.378 300.558Z" fill="#0DB795"></path> <path d="M394.378 96.8649H117.622C115.787 96.8649 114.027 96.136 112.729 94.8384C111.432 93.5409 110.703 91.781 110.703 89.946C110.703 88.111 111.432 86.3512 112.729 85.0536C114.027 83.7561 115.787 83.0271 117.622 83.0271H394.378C396.213 83.0271 397.973 83.7561 399.271 85.0536C400.568 86.3512 401.297 88.111 401.297 89.946C401.297 91.781 400.568 93.5409 399.271 94.8384C397.973 96.136 396.213 96.8649 394.378 96.8649Z" fill="#0DB795"></path> <path d="M394.378 408.216H117.622C115.787 408.216 114.027 407.487 112.729 406.19C111.432 404.892 110.703 403.132 110.703 401.297C110.703 399.462 111.432 397.702 112.729 396.405C114.027 395.107 115.787 394.378 117.622 394.378H394.378C396.213 394.378 397.973 395.107 399.271 396.405C400.568 397.702 401.297 399.462 401.297 401.297C401.297 403.132 400.568 404.892 399.271 406.19C397.973 407.487 396.213 408.216 394.378 408.216Z" fill="#0DB795"></path> <path d="M256 470.729C251.163 470.729 246.434 469.294 242.412 466.607C238.39 463.919 235.255 460.099 233.403 455.63C231.552 451.161 231.068 446.243 232.012 441.499C232.955 436.754 235.285 432.396 238.705 428.976C242.126 425.555 246.484 423.226 251.228 422.282C255.973 421.338 260.891 421.823 265.36 423.674C269.829 425.525 273.649 428.66 276.336 432.682C279.024 436.704 280.458 441.433 280.458 446.27C280.451 452.755 277.872 458.972 273.287 463.557C268.701 468.142 262.485 470.721 256 470.729ZM256 435.65C253.899 435.65 251.846 436.273 250.1 437.44C248.353 438.607 246.992 440.265 246.188 442.206C245.384 444.147 245.174 446.282 245.584 448.342C245.993 450.403 247.005 452.295 248.49 453.78C249.975 455.266 251.868 456.277 253.928 456.687C255.988 457.097 258.124 456.886 260.064 456.082C262.005 455.279 263.664 453.917 264.831 452.171C265.998 450.424 266.621 448.371 266.621 446.27C266.619 443.454 265.499 440.754 263.508 438.763C261.517 436.771 258.816 435.652 256 435.65Z" fill="#0DB795"></path> <path d="M258.159 63.9999H214.486C212.651 63.9999 210.892 63.271 209.594 61.9734C208.297 60.6759 207.568 58.916 207.568 57.081C207.568 55.246 208.297 53.4862 209.594 52.1886C210.892 50.8911 212.651 50.1621 214.486 50.1621H258.159C259.994 50.1621 261.754 50.8911 263.051 52.1886C264.349 53.4862 265.078 55.246 265.078 57.081C265.078 58.916 264.349 60.6759 263.051 61.9734C261.754 63.271 259.994 63.9999 258.159 63.9999Z" fill="#0DB795"></path> <path d="M297.514 63.9999H285.405C283.57 63.9999 281.811 63.271 280.513 61.9734C279.215 60.6759 278.486 58.916 278.486 57.081C278.486 55.246 279.215 53.4862 280.513 52.1886C281.811 50.8911 283.57 50.1621 285.405 50.1621H297.514C299.349 50.1621 301.108 50.8911 302.406 52.1886C303.703 53.4862 304.432 55.246 304.432 57.081C304.432 58.916 303.703 60.6759 302.406 61.9734C301.108 63.271 299.349 63.9999 297.514 63.9999Z" fill="#0DB795"></path> <path d="M236.551 307.795C230.709 307.775 225.111 305.447 220.978 301.318C216.846 297.189 214.512 291.594 214.486 285.751V205.492C214.487 201.386 215.635 197.361 217.8 193.872C219.964 190.383 223.06 187.567 226.739 185.742C230.418 183.918 234.533 183.157 238.621 183.545C242.709 183.933 246.607 185.455 249.877 187.939L302.654 228.068C305.36 230.126 307.553 232.78 309.063 235.825C310.573 238.87 311.359 242.223 311.359 245.622C311.359 249.021 310.573 252.373 309.063 255.418C307.553 258.463 305.36 261.118 302.654 263.175L249.877 303.305C246.047 306.221 241.365 307.799 236.551 307.795ZM236.551 197.286C235.273 197.292 234.013 197.593 232.87 198.165C231.496 198.83 230.339 199.872 229.534 201.169C228.729 202.466 228.31 203.965 228.324 205.492V285.751C228.327 287.276 228.754 288.77 229.558 290.065C230.362 291.36 231.511 292.406 232.876 293.085C234.241 293.764 235.768 294.049 237.286 293.909C238.804 293.768 240.253 293.208 241.47 292.29L294.248 252.16C295.256 251.395 296.073 250.408 296.635 249.275C297.198 248.142 297.491 246.894 297.491 245.629C297.491 244.364 297.198 243.116 296.635 241.983C296.073 240.849 295.256 239.862 294.248 239.097L241.47 198.967C240.062 197.883 238.335 197.293 236.558 197.286H236.551Z" fill="#0DB795"></path> </svg> 